<?xml version="1.0" encoding="UTF-8" standalone="no"?>
<svg width="338px" height="157px" viewBox="0 0 338 157" version="1.1" xmlns="http://www.w3.org/2000/svg" xmlns:xlink="http://www.w3.org/1999/xlink" xmlns:sketch="http://www.bohemiancoding.com/sketch/ns">
    <!-- Generator: Sketch 3.3.2 (12043) - http://www.bohemiancoding.com/sketch -->
    <title>jalo_logo_noicon</title>
    <desc>Created with Sketch.</desc>
    <defs></defs>
    <g id="Page-1" stroke="none" stroke-width="1" fill="none" fill-rule="evenodd" sketch:type="MSPage">
        <g id="jalo_logo_noicon" sketch:type="MSArtboardGroup" fill="#333333">
            <path d="M5.90283203,143.860352 L5.90283203,128.069336 C13.9009189,133.674833 22.514114,136.477539 31.7426758,136.477539 C41.2446764,136.477539 48.0976352,134.136254 52.3017578,129.453613 C56.5058804,124.770973 58.6079102,117.09771 58.6079102,106.433594 L58.6079102,9.43164062 L73.7836914,9.43164062 L73.7836914,107.664062 C73.7836914,116.209027 72.5874143,123.506317 70.1948242,129.556152 C67.8022341,135.605987 64.5381066,140.100571 60.4023438,143.040039 C56.2665809,145.979507 52.028342,148.064447 47.6875,149.294922 C43.346658,150.525397 38.6811773,151.140625 33.690918,151.140625 C23.6420396,151.140625 14.3794369,148.713891 5.90283203,143.860352 L5.90283203,143.860352 Z M90.6489258,117.405273 C90.6489258,112.620093 91.5204991,108.330585 93.2636719,104.536621 C95.0068447,100.742657 97.1430538,97.6665157 99.6723633,95.3081055 C102.201673,92.9496952 105.414531,90.9331138 109.311035,89.2583008 C113.207539,87.5834877 116.659653,86.3530313 119.66748,85.5668945 C122.675308,84.7807578 126.24705,84.1826192 130.382812,83.7724609 C134.518575,83.3623026 137.457999,83.1230472 139.201172,83.0546875 C140.944345,82.9863278 143.012195,82.9521484 145.404785,82.9521484 L162.221191,83.9775391 C162.221191,74.6122579 159.640651,67.9301958 154.479492,63.9311523 C149.318334,59.9321089 141.67925,57.9326172 131.562012,57.9326172 C120.214299,57.9326172 109.994674,59.6074051 100.902832,62.9570312 L100.902832,48.2939453 C111.225149,44.6708803 121.718208,42.859375 132.382324,42.859375 C147.079663,42.859375 158.290489,46.567834 166.015137,53.9848633 C173.739785,61.4018926 177.602051,72.2538348 177.602051,86.5410156 L177.602051,118.020508 C177.602051,124.71976 176.046891,130.4448 172.936523,135.195801 C169.826156,139.946801 165.827173,143.381825 160.939453,145.500977 C156.051733,147.620128 151.471701,149.08984 147.199219,149.910156 C142.926736,150.730473 138.705587,151.140625 134.535645,151.140625 C131.322738,151.140625 128.024431,150.935549 124.640625,150.525391 C121.256819,150.115232 117.428732,149.1753 113.15625,147.705566 C108.883768,146.235832 105.175309,144.355968 102.030762,142.065918 C98.8862147,139.775867 96.2031361,136.49465 93.9814453,132.222168 C91.7597545,127.949686 90.6489258,123.01077 90.6489258,117.405273 L90.6489258,117.405273 Z M105.722168,117.405273 C105.722168,130.530339 115.224026,137.092773 134.228027,137.092773 L134.535645,137.092773 C153.129487,137.092773 162.42627,130.735415 162.42627,118.020508 L162.42627,97.8203125 C157.777809,96.9999959 151.557168,96.5898438 143.76416,96.5898438 C118.402705,96.5898438 105.722168,103.528251 105.722168,117.405273 L105.722168,117.405273 Z M197.338379,149.5 L197.338379,4.81738281 L212.411621,4.81738281 L212.411621,149.5 L197.338379,149.5 Z M232.968262,97 C232.968262,86.3358842 234.437974,77.2612679 237.377441,69.7758789 C240.316909,62.2904899 244.315893,56.7021669 249.374512,53.0107422 C254.433131,49.3193175 259.577122,46.7045975 264.806641,45.1665039 C270.036159,43.6284103 275.812468,42.859375 282.135742,42.859375 C288.459016,42.859375 294.269505,43.6284103 299.567383,45.1665039 C304.865261,46.7045975 310.043432,49.3193175 315.102051,53.0107422 C320.16067,56.7021669 324.159653,62.2904899 327.099121,69.7758789 C330.038589,77.2612679 331.508301,86.3358842 331.508301,97 C331.508301,107.664116 330.038589,116.738732 327.099121,124.224121 C324.159653,131.70951 320.16067,137.297833 315.102051,140.989258 C310.043432,144.680683 304.865261,147.295402 299.567383,148.833496 C294.269505,150.37159 288.459016,151.140625 282.135742,151.140625 C275.812468,151.140625 270.036159,150.37159 264.806641,148.833496 C259.577122,147.295402 254.433131,144.680683 249.374512,140.989258 C244.315893,137.297833 240.316909,131.70951 237.377441,124.224121 C234.437974,116.738732 232.968262,107.664116 232.968262,97 L232.968262,97 Z M248.144043,97 C248.144043,111.013742 250.844211,121.233366 256.244629,127.65918 C261.645047,134.084993 270.292421,137.297852 282.187012,137.297852 C294.081602,137.297852 302.746067,134.119172 308.180664,127.761719 C313.615262,121.404265 316.33252,111.150461 316.33252,97 C316.33252,82.8495386 313.615262,72.5957349 308.180664,66.2382812 C302.746067,59.8808276 294.081602,56.7021484 282.187012,56.7021484 C270.292421,56.7021484 261.645047,59.9150069 256.244629,66.3408203 C250.844211,72.7666337 248.144043,82.9862581 248.144043,97 L248.144043,97 Z" id="jalo_logo" sketch:type="MSShapeGroup"></path>
        </g>
    </g>
</svg>