<?xml version="1.0" encoding="UTF-8" standalone="no"?>
<svg width="338px" height="157px" viewBox="0 0 338 157" version="1.1" xmlns="http://www.w3.org/2000/svg" xmlns:xlink="http://www.w3.org/1999/xlink" xmlns:sketch="http://www.bohemiancoding.com/sketch/ns">
    <!-- Generator: Sketch 3.3.2 (12043) - http://www.bohemiancoding.com/sketch -->
    <title>jalo_logo_noiconwhite</title>
    <desc>Created with Sketch.</desc>
    <defs></defs>
    <g id="Page-1" stroke="none" stroke-width="1" fill="none" fill-rule="evenodd" sketch:type="MSPage">
        <g id="jalo_logo_noiconwhite" sketch:type="MSArtboardGroup" fill="#FFFFFF">
            <path d="M4,145.185965 L4,129.26514 C12.0638348,134.916717 20.7478343,137.742463 30.052259,137.742463 C39.6323704,137.742463 46.5416637,135.381931 50.7803461,130.660797 C55.0190284,125.939663 57.1383378,118.203322 57.1383378,107.451542 L57.1383378,9.65218911 L72.4388709,9.65218911 L72.4388709,108.692126 C72.4388709,117.307334 71.2327599,124.664612 68.8205016,130.764179 C66.4082433,136.863746 63.1172832,141.395278 58.9475225,144.358909 C54.7777618,147.322541 50.5046827,149.42462 46.128157,150.66521 C41.7516312,151.9058 37.0477982,152.526086 32.0165166,152.526086 C21.8850319,152.526086 12.5462864,150.079403 4,145.185965 L4,145.185965 Z M89.4427452,118.513414 C89.4427452,113.688898 90.3214832,109.364128 92.0789857,105.538976 C93.8364881,101.713823 95.9902579,98.612395 98.5403595,96.2345976 C101.090461,93.8568001 104.329731,91.8236415 108.258266,90.1350607 C112.1868,88.4464799 115.667292,87.2059086 118.699846,86.4133094 C121.732399,85.6207103 125.333502,85.0176548 129.503263,84.6041248 C133.673023,84.1905948 136.63661,83.9493726 138.394113,83.8804509 C140.151615,83.8115293 142.236464,83.777069 144.648723,83.777069 L161.603367,84.8108888 C161.603367,75.3686207 159.001614,68.631629 153.798028,64.5997116 C148.594442,60.5677942 140.892562,58.5518658 130.692155,58.5518658 C119.251159,58.5518658 108.947525,60.2404212 99.7809432,63.6175828 L99.7809432,48.8339596 C110.188115,45.1811114 120.767431,43.3547147 131.519211,43.3547147 C146.337369,43.3547147 157.640353,47.0936589 165.428501,54.5716595 C173.216649,62.0496602 177.110664,72.9908103 177.110664,87.3954383 L177.110664,119.133706 C177.110664,125.888029 175.54272,131.660132 172.406784,136.450188 C169.270849,141.240244 165.238992,144.703505 160.311093,146.840077 C155.383194,148.976649 150.765511,150.458442 146.457907,151.285502 C142.150303,152.112562 137.894454,152.526086 133.690233,152.526086 C130.450915,152.526086 127.125494,152.319324 123.713872,151.905794 C120.302249,151.492264 116.442694,150.544605 112.13509,149.062789 C107.827486,147.580974 104.088542,145.685656 100.918145,143.376781 C97.7477484,141.067905 95.0426137,137.759715 92.8026596,133.45211 C90.5627055,129.144506 89.4427452,124.164991 89.4427452,118.513414 L89.4427452,118.513414 Z M104.639896,118.513414 C104.639896,131.746374 114.219864,138.362755 133.380087,138.362755 L133.690233,138.362755 C152.436926,138.362755 161.810131,131.953136 161.810131,119.133706 L161.810131,98.7674561 C157.123458,97.9403961 150.851681,97.5268723 142.994611,97.5268723 C117.424673,97.5268723 104.639896,104.522316 104.639896,118.513414 L104.639896,118.513414 Z M197.009234,150.871974 L197.009234,5 L212.206385,5 L212.206385,150.871974 L197.009234,150.871974 Z M232.932011,97.9404002 C232.932011,87.1886205 234.413804,78.0394068 237.377436,70.4924845 C240.341068,62.9455622 244.372924,57.3113006 249.473128,53.5895307 C254.573331,49.8677608 259.759608,47.2315467 265.032116,45.6808092 C270.304623,44.1300718 276.128416,43.3547147 282.50367,43.3547147 C288.878924,43.3547147 294.737178,44.1300718 300.078607,45.6808092 C305.420036,47.2315467 310.640774,49.8677608 315.740977,53.5895307 C320.84118,57.3113006 324.873037,62.9455622 327.836669,70.4924845 C330.8003,78.0394068 332.282094,87.1886205 332.282094,97.9404002 C332.282094,108.69218 330.8003,117.841394 327.836669,125.388316 C324.873037,132.935238 320.84118,138.5695 315.740977,142.29127 C310.640774,146.01304 305.420036,148.649254 300.078607,150.199991 C294.737178,151.750729 288.878924,152.526086 282.50367,152.526086 C276.128416,152.526086 270.304623,151.750729 265.032116,150.199991 C259.759608,148.649254 254.573331,146.01304 249.473128,142.29127 C244.372924,138.5695 240.341068,132.935238 237.377436,125.388316 C234.413804,117.841394 232.932011,108.69218 232.932011,97.9404002 L232.932011,97.9404002 Z M248.232544,97.9404002 C248.232544,112.069342 250.954909,122.372976 256.39972,128.851612 C261.844532,135.330249 270.562992,138.569518 282.555361,138.569518 C294.547731,138.569518 303.283421,135.364709 308.762693,128.954994 C314.241966,122.545279 316.981561,112.207185 316.981561,97.9404002 C316.981561,83.6736156 314.241966,73.335521 308.762693,66.9258062 C303.283421,60.5160913 294.547731,57.311282 282.555361,57.311282 C270.562992,57.311282 261.844532,60.5505517 256.39972,67.0291881 C250.954909,73.5078246 248.232544,83.811459 248.232544,97.9404002 L248.232544,97.9404002 Z" id="jalo_logo" sketch:type="MSShapeGroup"></path>
        </g>
    </g>
</svg>