<?xml version="1.0" encoding="UTF-8" standalone="no"?>
<svg width="324px" height="157px" viewBox="0 0 324 157" version="1.1" xmlns="http://www.w3.org/2000/svg" xmlns:xlink="http://www.w3.org/1999/xlink" xmlns:sketch="http://www.bohemiancoding.com/sketch/ns">
    <!-- Generator: Sketch 3.3.2 (12043) - http://www.bohemiancoding.com/sketch -->
    <title>jalo_logo</title>
    <desc>Created with Sketch.</desc>
    <defs></defs>
    <g id="Page-1" stroke="none" stroke-width="1" fill="none" fill-rule="evenodd" sketch:type="MSPage">
        <g id="jalo_logo" sketch:type="MSArtboardGroup" fill="#FFFFFF">
            <path d="M0.902832031,143.860352 L0.902832031,128.069336 C8.9009189,133.674833 17.514114,136.477539 26.7426758,136.477539 C36.2446764,136.477539 43.0976352,134.136254 47.3017578,129.453613 C51.5058804,124.770973 53.6079102,117.09771 53.6079102,106.433594 L53.6079102,9.43164062 L68.7836914,9.43164062 L68.7836914,107.664062 C68.7836914,116.209027 67.5874143,123.506317 65.1948242,129.556152 C62.8022341,135.605987 59.5381066,140.100571 55.4023438,143.040039 C51.2665809,145.979507 47.028342,148.064447 42.6875,149.294922 C38.346658,150.525397 33.6811773,151.140625 28.690918,151.140625 C18.6420396,151.140625 9.37943691,148.713891 0.902832031,143.860352 L0.902832031,143.860352 Z M85.6489258,117.405273 C85.6489258,112.620093 86.5204991,108.330585 88.2636719,104.536621 C90.0068447,100.742657 92.1430538,97.6665157 94.6723633,95.3081055 C97.2016728,92.9496952 100.414531,90.9331138 104.311035,89.2583008 C108.207539,87.5834877 111.659653,86.3530313 114.66748,85.5668945 C117.675308,84.7807578 121.24705,84.1826192 125.382812,83.7724609 C129.518575,83.3623026 132.457999,83.1230472 134.201172,83.0546875 C135.944345,82.9863278 138.012195,82.9521484 140.404785,82.9521484 L157.221191,83.9775391 C157.221191,74.6122579 154.640651,67.9301958 149.479492,63.9311523 C144.318334,59.9321089 136.67925,57.9326172 126.562012,57.9326172 C115.214299,57.9326172 104.994674,59.6074051 95.902832,62.9570312 L95.902832,48.2939453 C106.225149,44.6708803 116.718208,42.859375 127.382324,42.859375 C142.079663,42.859375 153.290489,46.567834 161.015137,53.9848633 C168.739785,61.4018926 172.602051,72.2538348 172.602051,86.5410156 L172.602051,118.020508 C172.602051,124.71976 171.046891,130.4448 167.936523,135.195801 C164.826156,139.946801 160.827173,143.381825 155.939453,145.500977 C151.051733,147.620128 146.471701,149.08984 142.199219,149.910156 C137.926736,150.730473 133.705587,151.140625 129.535645,151.140625 C126.322738,151.140625 123.024431,150.935549 119.640625,150.525391 C116.256819,150.115232 112.428732,149.1753 108.15625,147.705566 C103.883768,146.235832 100.175309,144.355968 97.0307617,142.065918 C93.8862147,139.775867 91.2031361,136.49465 88.9814453,132.222168 C86.7597545,127.949686 85.6489258,123.01077 85.6489258,117.405273 L85.6489258,117.405273 Z M100.722168,117.405273 C100.722168,130.530339 110.224026,137.092773 129.228027,137.092773 L129.535645,137.092773 C148.129487,137.092773 157.42627,130.735415 157.42627,118.020508 L157.42627,97.8203125 C152.777809,96.9999959 146.557168,96.5898438 138.76416,96.5898438 C113.402705,96.5898438 100.722168,103.528251 100.722168,117.405273 L100.722168,117.405273 Z M192.338379,149.5 L192.338379,4.81738281 L207.411621,4.81738281 L207.411621,149.5 L192.338379,149.5 Z M227.968262,97 C227.968262,86.3358842 229.437974,77.2612679 232.377441,69.7758789 C235.316909,62.2904899 239.315893,56.7021669 244.374512,53.0107422 C249.433131,49.3193175 254.577122,46.7045975 259.806641,45.1665039 C265.036159,43.6284103 270.812468,42.859375 277.135742,42.859375 C283.459016,42.859375 289.269505,43.6284103 294.567383,45.1665039 C299.865261,46.7045975 305.043432,49.3193175 310.102051,53.0107422 C315.16067,56.7021669 319.159653,62.2904899 322.099121,69.7758789 C325.038589,77.2612679 326.508301,86.3358842 326.508301,97 C326.508301,107.664116 325.038589,116.738732 322.099121,124.224121 C319.159653,131.70951 315.16067,137.297833 310.102051,140.989258 C305.043432,144.680683 299.865261,147.295402 294.567383,148.833496 C289.269505,150.37159 283.459016,151.140625 277.135742,151.140625 C270.812468,151.140625 265.036159,150.37159 259.806641,148.833496 C254.577122,147.295402 249.433131,144.680683 244.374512,140.989258 C239.315893,137.297833 235.316909,131.70951 232.377441,124.224121 C229.437974,116.738732 227.968262,107.664116 227.968262,97 L227.968262,97 Z M243.144043,97 C243.144043,111.013742 245.844211,121.233366 251.244629,127.65918 C256.645047,134.084993 265.292421,137.297852 277.187012,137.297852 C289.081602,137.297852 297.746067,134.119172 303.180664,127.761719 C308.615262,121.404265 311.33252,111.150461 311.33252,97 C311.33252,82.8495386 308.615262,72.5957349 303.180664,66.2382812 C297.746067,59.8808276 289.081602,56.7021484 277.187012,56.7021484 C265.292421,56.7021484 256.645047,59.9150069 251.244629,66.3408203 C245.844211,72.7666337 243.144043,82.9862581 243.144043,97 L243.144043,97 Z" sketch:type="MSShapeGroup"></path>
        </g>
    </g>
</svg>