<?xml version="1.0" encoding="UTF-8" standalone="no"?>
<svg width="512px" height="512px" viewBox="0 0 512 512" version="1.1" xmlns="http://www.w3.org/2000/svg" xmlns:xlink="http://www.w3.org/1999/xlink" xmlns:sketch="http://www.bohemiancoding.com/sketch/ns">
    <!-- Generator: Sketch 3.3.2 (12043) - http://www.bohemiancoding.com/sketch -->
    <title>uE004-pinterest</title>
    <desc>Created with Sketch.</desc>
    <defs></defs>
    <g id="Page-1" stroke="none" stroke-width="1" fill="none" fill-rule="evenodd" sketch:type="MSPage">
        <g id="uE004-pinterest" sketch:type="MSArtboardGroup" fill="#000000">
            <path d="M255.99375,56 C145.534702,56 56,145.534702 56,255.99375 C56,340.716103 108.710853,413.088841 183.108528,442.22543 C181.358583,426.400925 179.783632,402.126684 183.796006,384.852223 C187.433393,369.240211 207.245274,285.44283 207.245274,285.44283 C207.245274,285.44283 201.257961,273.468204 201.257961,255.756258 C201.257961,227.944627 217.382457,207.182776 237.44433,207.182776 C254.506297,207.182776 262.743539,219.994875 262.743539,235.356895 C262.743539,252.518859 251.818881,278.168057 246.181557,301.942314 C241.469204,321.854192 256.168745,338.091185 275.793131,338.091185 C311.342021,338.091185 338.666167,300.604856 338.666167,246.506547 C338.666167,198.620543 304.254742,165.146589 255.131277,165.146589 C198.233055,165.146589 164.821599,207.832755 164.821599,251.931377 C164.821599,269.11834 171.446392,287.555264 179.708634,297.567451 C181.346083,299.542389 181.583576,301.279835 181.096091,303.304772 C179.583638,309.629574 176.208743,323.216649 175.546264,325.991563 C174.671292,329.653948 172.646355,330.428924 168.858973,328.666479 C143.884754,317.041842 128.260242,280.517984 128.260242,251.1939 C128.260242,188.108372 174.096309,130.172682 260.406112,130.172682 C329.778944,130.172682 383.702259,179.608637 383.702259,245.681572 C383.702259,314.604419 340.241117,370.077685 279.930502,370.077685 C259.668635,370.077685 240.619231,359.553014 234.094435,347.115903 C234.094435,347.115903 224.069748,385.302209 221.632324,394.651917 C217.119965,412.026374 204.920346,433.800694 196.770601,447.087779 C215.482516,452.875098 235.369395,456 255.99375,456 C366.440299,456 455.9875,366.465298 455.9875,256.00625 C455.9875,145.547202 366.452798,56.0124996 255.99375,56.0124996 L255.99375,56 Z" id="Shape" sketch:type="MSShapeGroup"></path>
        </g>
    </g>
</svg>