<?xml version="1.0" encoding="UTF-8" standalone="no"?>
<svg width="512px" height="512px" viewBox="0 0 512 512" version="1.1" xmlns="http://www.w3.org/2000/svg" xmlns:xlink="http://www.w3.org/1999/xlink" xmlns:sketch="http://www.bohemiancoding.com/sketch/ns">
    <!-- Generator: Sketch 3.3.2 (12043) - http://www.bohemiancoding.com/sketch -->
    <title>uE003-linkedin</title>
    <desc>Created with Sketch.</desc>
    <defs></defs>
    <g id="Page-1" stroke="none" stroke-width="1" fill="none" fill-rule="evenodd" sketch:type="MSPage">
        <g id="uE003-linkedin" sketch:type="MSArtboardGroup" fill="#444444">
            <path d="M388.8125,56 L123.1875,56 C86.2375,56 56,86.2375 56,123.1875 L56,388.8125 C56,425.7625 86.2375,456 123.1875,456 L388.8125,456 C425.7625,456 456,425.7625 456,388.8125 L456,123.1875 C456,86.2375 425.7625,56 388.8125,56 L388.8125,56 Z M206,381 L156,381 L156,206 L206,206 L206,381 L206,381 Z M181,181 C167.1875,181 156,169.8125 156,156 C156,142.1875 167.1875,131 181,131 C194.8125,131 206,142.1875 206,156 C206,169.8125 194.8125,181 181,181 L181,181 Z M381,381 L331,381 L331,281 C331,267.1875 319.8125,256 306,256 C292.1875,256 281,267.1875 281,281 L281,381 L231,381 L231,206 L281,206 L281,237.0375 C291.3125,222.875 307.075,206 324.75,206 C355.8125,206 381,233.9875 381,268.5 L381,381 L381,381 Z" id="Shape" sketch:type="MSShapeGroup"></path>
        </g>
    </g>
</svg>