<?xml version="1.0" encoding="UTF-8" standalone="no"?>
<svg width="512px" height="512px" viewBox="0 0 512 512" version="1.1" xmlns="http://www.w3.org/2000/svg" xmlns:xlink="http://www.w3.org/1999/xlink" xmlns:sketch="http://www.bohemiancoding.com/sketch/ns">
    <!-- Generator: Sketch 3.3.2 (12043) - http://www.bohemiancoding.com/sketch -->
    <title>uE008-arrow-down</title>
    <desc>Created with Sketch.</desc>
    <defs></defs>
    <g id="Page-1" stroke="none" stroke-width="1" fill="none" fill-rule="evenodd" sketch:type="MSPage">
        <g id="uE008-arrow-down" sketch:type="MSArtboardGroup" fill="#000000">
            <path d="M452.068796,163.078624 L431.921376,142.931204 C429.464373,140.474201 426.02457,139 422.584767,139 C419.144963,139 416.19656,140.474201 413.248157,142.931204 L256,300.179361 L98.7518428,142.931204 C96.2948403,140.474201 92.8550369,139 89.4152334,139 C85.97543,139 83.027027,140.474201 80.0786241,142.931204 L59.9312039,163.078624 C57.4742015,165.535627 56,168.97543 56,172.415233 C56,175.855037 57.4742015,178.80344 59.9312039,181.751843 L246.663391,368.484029 C249.120393,370.941032 252.560197,372.415233 256,372.415233 C259.439803,372.415233 262.388206,370.941032 265.336609,368.484029 L452.068796,181.751843 C454.525799,179.29484 456,175.855037 456,172.415233 C456,168.97543 455.017199,165.535627 452.068796,163.078624 L452.068796,163.078624 Z" id="Shape" sketch:type="MSShapeGroup"></path>
        </g>
    </g>
</svg>