<?xml version="1.0" encoding="UTF-8" standalone="no"?>
<svg width="512px" height="512px" viewBox="0 0 512 512" version="1.1" xmlns="http://www.w3.org/2000/svg" xmlns:xlink="http://www.w3.org/1999/xlink" xmlns:sketch="http://www.bohemiancoding.com/sketch/ns">
    <!-- Generator: Sketch 3.3.2 (12043) - http://www.bohemiancoding.com/sketch -->
    <title>uE002-twitter</title>
    <desc>Created with Sketch.</desc>
    <defs></defs>
    <g id="Page-1" stroke="none" stroke-width="1" fill="none" fill-rule="evenodd" sketch:type="MSPage">
        <g id="uE002-twitter" sketch:type="MSArtboardGroup" fill="#444444">
            <path d="M456,131.473798 C441.28796,137.998594 425.463454,142.410956 408.863973,144.398394 C425.800944,134.236211 438.813037,118.161714 444.950345,98.9998125 C429.088341,108.399519 411.52639,115.236805 392.839474,118.91169 C377.864942,102.962189 356.540608,93 332.941346,93 C287.617762,93 250.88141,129.736352 250.88141,175.059936 C250.88141,181.497234 251.606387,187.759539 253.006344,193.759351 C184.808475,190.334458 124.335365,157.660479 83.8616293,108.012031 C76.79935,120.136652 72.7494766,134.223712 72.7494766,149.273241 C72.7494766,177.747352 87.2365239,202.859067 109.260836,217.583607 C95.8112559,217.15862 83.1616512,213.471235 72.0869973,207.321427 C72.0744977,207.658917 72.0744977,208.008906 72.0744977,208.358895 C72.0744977,248.120152 100.361114,281.281616 137.897441,288.818881 C131.010156,290.693822 123.760382,291.693791 116.273116,291.693791 C110.985782,291.693791 105.848442,291.181307 100.836099,290.218837 C111.273273,322.817818 141.584825,346.542077 177.496203,347.204556 C149.409581,369.216368 114.023187,382.328458 75.5743883,382.328458 C68.9495953,382.328458 62.4247992,381.940971 56,381.178494 C92.3113653,404.465267 135.447517,418.052342 181.796069,418.052342 C332.741352,418.052342 415.276273,293.00625 415.276273,184.559639 C415.276273,180.99725 415.201275,177.459861 415.03878,173.94747 C431.075779,162.372832 444.987844,147.923284 455.9875,131.473798 L456,131.473798 Z" id="Shape" sketch:type="MSShapeGroup"></path>
        </g>
    </g>
</svg>