<?xml version="1.0" encoding="UTF-8" standalone="no"?>
<svg width="512px" height="512px" viewBox="0 0 512 512" version="1.1" xmlns="http://www.w3.org/2000/svg" xmlns:xlink="http://www.w3.org/1999/xlink" xmlns:sketch="http://www.bohemiancoding.com/sketch/ns">
    <!-- Generator: Sketch 3.3.2 (12043) - http://www.bohemiancoding.com/sketch -->
    <title>uE007-arrow-up</title>
    <desc>Created with Sketch.</desc>
    <defs></defs>
    <g id="Page-1" stroke="none" stroke-width="1" fill="none" fill-rule="evenodd" sketch:type="MSPage">
        <g id="uE007-arrow-up" sketch:type="MSArtboardGroup" fill="#000000">
            <path d="M451.976612,329.619014 L265.287887,142.930289 C262.831456,140.473858 259.392453,139 255.953451,139 C252.514448,139 249.566731,140.473858 246.619014,142.930289 L59.930289,329.619014 C57.4738584,332.075445 56,335.514448 56,338.953451 C56,342.392453 57.4738584,345.34017 59.930289,348.287887 L80.0730198,368.430618 C82.5294504,370.887048 85.9684533,372.360907 89.4074561,372.360907 C92.8464589,372.360907 95.7941757,370.887048 98.7418924,368.430618 L255.953451,211.21906 L413.165009,368.430618 C415.621439,370.887048 419.060442,372.360907 422.499445,372.360907 C425.938448,372.360907 428.886165,370.887048 431.833881,368.430618 L451.976612,348.287887 C454.433043,345.831456 455.906901,342.392453 455.906901,338.953451 C456.398187,335.023162 454.924329,332.075445 451.976612,329.619014 L451.976612,329.619014 Z" id="Shape" sketch:type="MSShapeGroup"></path>
        </g>
    </g>
</svg>