<?xml version="1.0" encoding="UTF-8" standalone="no"?>
<svg width="512px" height="512px" viewBox="0 0 512 512" version="1.1" xmlns="http://www.w3.org/2000/svg" xmlns:xlink="http://www.w3.org/1999/xlink" xmlns:sketch="http://www.bohemiancoding.com/sketch/ns">
    <!-- Generator: Sketch 3.3.2 (12043) - http://www.bohemiancoding.com/sketch -->
    <title>uE004-pinterest</title>
    <desc>Created with Sketch.</desc>
    <defs></defs>
    <g id="Page-1" stroke="none" stroke-width="1" fill="none" fill-rule="evenodd" sketch:type="MSPage">
        <g id="uE004-pinterest" sketch:type="MSArtboardGroup" fill="#444444">
            <path d="M256,56 C145.5375,56 56,145.5375 56,256 C56,340.725 108.7125,413.1 183.1125,442.2375 C181.3625,426.4125 179.7875,402.1375 183.8,384.8625 C187.4375,369.25 207.25,285.45 207.25,285.45 C207.25,285.45 201.2625,273.475 201.2625,255.7625 C201.2625,227.95 217.3875,207.1875 237.45,207.1875 C254.5125,207.1875 262.75,220 262.75,235.3625 C262.75,252.525 251.825,278.175 246.1875,301.95 C241.475,321.8625 256.175,338.1 275.8,338.1 C311.35,338.1 338.675,300.6125 338.675,246.5125 C338.675,198.625 304.2625,165.15 255.1375,165.15 C198.2375,165.15 164.825,207.8375 164.825,251.9375 C164.825,269.125 171.45,287.5625 179.7125,297.575 C181.35,299.55 181.5875,301.2875 181.1,303.3125 C179.5875,309.6375 176.2125,323.225 175.55,326 C174.675,329.6625 172.65,330.4375 168.8625,328.675 C143.8875,317.05 128.2625,280.525 128.2625,251.2 C128.2625,188.1125 174.1,130.175 260.4125,130.175 C329.7875,130.175 383.7125,179.6125 383.7125,245.6875 C383.7125,314.6125 340.25,370.0875 279.9375,370.0875 C259.675,370.0875 240.625,359.5625 234.1,347.125 C234.1,347.125 224.075,385.3125 221.6375,394.6625 C217.125,412.0375 204.925,433.8125 196.775,447.1 C215.4875,452.8875 235.375,456.0125 256,456.0125 C366.45,456.0125 456,366.475 456,256.0125 C456,145.55 366.4625,56.0125 256,56.0125 L256,56 Z" id="Shape" sketch:type="MSShapeGroup"></path>
        </g>
    </g>
</svg>