<?xml version="1.0" encoding="UTF-8" standalone="no"?>
<svg width="512px" height="512px" viewBox="0 0 512 512" version="1.1" xmlns="http://www.w3.org/2000/svg" xmlns:xlink="http://www.w3.org/1999/xlink" xmlns:sketch="http://www.bohemiancoding.com/sketch/ns">
    <!-- Generator: Sketch 3.3.2 (12043) - http://www.bohemiancoding.com/sketch -->
    <title>uE015-check</title>
    <desc>Created with Sketch.</desc>
    <defs></defs>
    <g id="Page-1" stroke="none" stroke-width="1" fill="none" fill-rule="evenodd" sketch:type="MSPage">
        <g id="uE015-check" sketch:type="MSArtboardGroup" fill="#0A0B09">
            <path d="M62.9509617,274.298922 L191.657196,403.005156 C196.27742,407.62538 202.300211,409.935492 209.251173,409.935492 C216.202135,409.935492 222.204301,407.62538 226.84515,403.005156 L449.069664,180.780642 C453.689888,175.686021 456,170.137627 456,163.186665 C456,156.235704 453.689888,150.212912 449.069664,145.592688 L413.88171,110.404734 C409.24086,105.310112 403.238694,103 396.287733,103 C389.336771,103 383.313979,105.310112 378.693755,110.404734 L209.251173,279.847316 L133.326871,203.923013 C128.686021,198.828392 122.683855,196.51828 115.732893,196.51828 C108.781932,196.51828 102.75914,198.828392 98.1389161,203.923013 L62.9509617,239.110968 C58.3307379,243.731192 56,249.753983 56,256.704945 C56,263.655907 58.3307379,269.204301 62.9509617,274.298922" id="Fill-112" sketch:type="MSShapeGroup"></path>
        </g>
    </g>
</svg>