<?xml version="1.0" encoding="UTF-8" standalone="no"?>
<svg width="512px" height="512px" viewBox="0 0 512 512" version="1.1" xmlns="http://www.w3.org/2000/svg" xmlns:xlink="http://www.w3.org/1999/xlink" xmlns:sketch="http://www.bohemiancoding.com/sketch/ns">
    <!-- Generator: Sketch 3.3.2 (12043) - http://www.bohemiancoding.com/sketch -->
    <title>uE016-camera</title>
    <desc>Created with Sketch.</desc>
    <defs></defs>
    <g id="Page-1" stroke="none" stroke-width="1" fill="none" fill-rule="evenodd" sketch:type="MSPage">
        <g id="uE016-camera" sketch:type="MSArtboardGroup" fill="#0A0B09">
            <path d="M71.6761699,413.59596 C82.1158673,424.035658 94.4340454,429.27213 109.362148,429.27213 L402.637852,429.27213 C417.565955,429.27213 429.884133,424.035658 440.32383,413.59596 C450.780151,403.139639 456,390.838085 456,375.909983 L456,189.707672 C456,174.796193 450.780151,162.478015 440.32383,152.021694 C429.884133,141.581997 417.183609,136.362148 402.637852,136.362148 L355.991688,136.362148 L345.169645,108.002078 C342.559721,101.286094 337.722218,95.318178 330.98961,90.4640512 C323.907905,85.6099244 316.826199,83 309.362148,83 L202.637852,83 C195.173801,83 188.092095,85.6099244 180.993766,90.4640512 C174.277782,95.318178 169.440279,101.286094 166.813731,108.002078 L155.991688,136.362148 L109.362148,136.362148 C94.7997673,136.362148 82.1158673,141.581997 71.6761699,152.021694 C61.2198487,162.478015 56,174.796193 56,189.707672 L56,375.909983 C56,390.838085 61.2198487,403.139639 71.6761699,413.59596 L71.6761699,413.59596 Z M256,189.707672 C281.3678,189.707672 303.394232,198.667858 321.663702,216.953952 C339.949796,235.240047 349.275704,257.249855 349.275704,282.617654 C349.275704,308.3678 339.949796,330.377608 321.663702,348.663702 C303.394232,366.949796 281.3678,375.909983 256,375.909983 C230.249855,375.909983 208.240047,366.949796 189.953952,348.663702 C171.667858,330.377608 162.707672,308.3678 162.707672,282.617654 C162.707672,257.249855 171.667858,235.240047 189.953952,216.953952 C208.240047,198.667858 230.249855,189.707672 256,189.707672 L256,189.707672 Z M256,342.695786 C272.424237,342.695786 286.587649,336.72787 298.157759,325.157759 C309.72787,313.587649 315.695786,299.407614 315.695786,282.617654 C315.695786,266.210041 309.72787,252.030006 298.157759,240.459895 C286.587649,228.889785 272.424237,222.921869 256,222.921869 C239.210041,222.921869 225.030006,228.889785 213.459895,240.459895 C201.889785,252.030006 195.921869,266.210041 195.921869,282.617654 C195.921869,299.407614 201.889785,313.587649 213.459895,325.157759 C225.030006,336.72787 239.210041,342.695786 256,342.695786 L256,342.695786 Z" id="Fill-165" sketch:type="MSShapeGroup"></path>
        </g>
    </g>
</svg>