<?xml version="1.0" encoding="UTF-8" standalone="no"?>
<svg width="512px" height="512px" viewBox="0 0 512 512" version="1.1" xmlns="http://www.w3.org/2000/svg" xmlns:xlink="http://www.w3.org/1999/xlink" xmlns:sketch="http://www.bohemiancoding.com/sketch/ns">
    <!-- Generator: Sketch 3.3.2 (12043) - http://www.bohemiancoding.com/sketch -->
    <title>uE011-map-marker</title>
    <desc>Created with Sketch.</desc>
    <defs></defs>
    <g id="Page-1" stroke="none" stroke-width="1" fill="none" fill-rule="evenodd" sketch:type="MSPage">
        <g id="uE011-map-marker" sketch:type="MSArtboardGroup" fill="#0A0B09">
            <path d="M131.400915,235.683926 L226.618216,437.326679 C229.425452,443.398628 233.62591,447.599085 238.762113,450.863797 C244.355791,454.128509 250.42774,456 256.499688,456 C262.571637,456 268.622791,454.128509 274.237263,450.863797 C279.373466,447.599085 283.573924,443.398628 286.360366,437.326679 L381.577667,235.683926 C387.19214,223.560823 389.978582,208.152215 389.978582,189.021418 C389.978582,152.610522 376.919734,120.878353 350.781244,95.1973383 C324.642753,69.058848 293.36806,56 256.499688,56 C219.631316,56 188.356623,69.058848 162.218133,95.1973383 C136.079642,120.878353 123,152.610522 123,189.021418 C123,208.152215 125.807236,223.560823 131.400915,235.683926 L131.400915,235.683926 Z M256.499688,122.749844 C274.694739,122.749844 290.560823,129.279268 303.640466,142.338116 C316.699314,155.417758 323.249532,170.805573 323.249532,189.021418 C323.249532,207.673945 316.699314,223.082554 303.640466,236.162196 C290.560823,249.221044 274.694739,255.750468 256.499688,255.750468 C238.283843,255.750468 222.417758,249.221044 209.35891,236.162196 C196.279268,223.082554 189.749844,207.673945 189.749844,189.021418 C189.749844,170.805573 196.279268,155.417758 209.35891,142.338116 C222.417758,129.279268 238.283843,122.749844 256.499688,122.749844 L256.499688,122.749844 Z" id="Fill-30" sketch:type="MSShapeGroup"></path>
        </g>
    </g>
</svg>