<?xml version="1.0" encoding="UTF-8" standalone="no"?>
<svg width="512px" height="512px" viewBox="0 0 512 512" version="1.1" xmlns="http://www.w3.org/2000/svg" xmlns:xlink="http://www.w3.org/1999/xlink" xmlns:sketch="http://www.bohemiancoding.com/sketch/ns">
    <!-- Generator: Sketch 3.3.2 (12043) - http://www.bohemiancoding.com/sketch -->
    <title>uE012-person</title>
    <desc>Created with Sketch.</desc>
    <defs></defs>
    <g id="Page-1" stroke="none" stroke-width="1" fill="none" fill-rule="evenodd" sketch:type="MSPage">
        <g id="uE012-person" sketch:type="MSArtboardGroup" fill="#0A0B09">
            <path d="M92.1307964,437.784155 C104.732169,449.928052 121.533999,456 142.536286,456 L370.31753,456 C391.319817,456 408.121647,449.928052 420.723019,437.784155 C433.324392,425.661052 439.853816,409.316698 439.853816,388.771886 C439.853816,379.45602 439.39634,370.576835 438.91807,361.718445 C438.460595,352.83926 437.046579,343.502599 435.195883,333.250988 C433.324392,322.978582 430.995425,313.641921 428.188189,305.241006 C425.380952,296.361822 421.658765,287.960907 416.980037,279.559992 C412.322104,271.637347 407.185901,264.151383 401.113953,258.557704 C395.042005,252.964026 387.576835,248.285298 378.718445,244.563111 C369.83926,241.298399 360.045124,239.426908 349.315242,239.426908 C347.901227,239.426908 344.179039,241.298399 338.564566,245.020586 C332.970888,248.763568 326.441464,252.964026 318.976294,257.164483 C311.968601,261.822416 302.63194,266.022874 290.966313,269.765856 C279.300686,273.488043 267.635059,275.359534 255.969432,275.359534 C244.761281,275.359534 233.095654,273.488043 221.430027,269.765856 C209.743606,266.022874 200.42774,261.822416 193.420046,257.164483 C185.954876,252.964026 179.404658,248.763568 173.810979,245.020586 C168.217301,241.298399 164.474319,239.426908 163.081098,239.426908 C152.351216,239.426908 142.536286,241.298399 133.677896,244.563111 C125.276981,248.285298 117.811811,252.964026 111.739863,258.557704 C105.667914,264.151383 100.074236,271.637347 95.3955084,279.559992 C90.7375754,287.960907 86.9945935,296.361822 84.2081514,305.241006 C81.8583905,313.641921 79.529424,322.978582 77.657933,333.250988 C75.8072364,343.502599 74.393221,352.83926 73.9357455,361.718445 C73.4574756,370.576835 73,379.45602 73,388.771886 C73,409.316698 79.529424,425.661052 92.1307964,437.784155 L92.1307964,437.784155 Z M256.426908,256.228738 C283.958619,256.228738 307.310667,246.413807 326.898939,226.825535 C346.508006,207.216469 356.302142,183.885215 356.302142,155.875234 C356.302142,128.343523 346.508006,105.012269 326.898939,85.4032023 C307.310667,65.794136 283.958619,56 256.426908,56 C228.416927,56 205.085673,65.794136 185.476606,85.4032023 C165.888334,105.012269 156.073404,128.343523 156.073404,155.875234 C156.073404,183.885215 165.888334,207.216469 185.476606,226.825535 C205.085673,246.413807 228.416927,256.228738 256.426908,256.228738 L256.426908,256.228738 Z" id="Fill-51" sketch:type="MSShapeGroup"></path>
        </g>
    </g>
</svg>