<?xml version="1.0" encoding="UTF-8" standalone="no"?>
<svg width="512px" height="512px" viewBox="0 0 512 512" version="1.1" xmlns="http://www.w3.org/2000/svg" xmlns:xlink="http://www.w3.org/1999/xlink" xmlns:sketch="http://www.bohemiancoding.com/sketch/ns">
    <!-- Generator: Sketch 3.3.2 (12043) - http://www.bohemiancoding.com/sketch -->
    <title>uE013-email</title>
    <desc>Created with Sketch.</desc>
    <defs></defs>
    <g id="Page-1" stroke="none" stroke-width="1" fill="none" fill-rule="evenodd" sketch:type="MSPage">
        <g id="uE013-email" sketch:type="MSArtboardGroup" fill="#0A0B09">
            <path d="M66.4071995,402.59084 C73.6067005,409.398289 82.0001782,412.99804 91.6054531,412.99804 L420.394547,412.99804 C429.999822,412.99804 438.393299,409.398289 445.5928,402.59084 C452.400249,395.391339 456,386.997862 456,377.392587 L456,134.587633 C456,125.000178 452.400249,116.58888 445.5928,109.389379 C438.393299,102.599751 429.999822,99 420.394547,99 L91.6054531,99 C82.0001782,99 73.6067005,102.599751 66.4071995,109.389379 C59.5997505,116.58888 56,125.000178 56,134.587633 L56,377.392587 C56,386.997862 59.5997505,395.391339 66.4071995,402.59084 L66.4071995,402.59084 Z M84.4059521,206.190591 C89.1996792,211.394191 94.403279,216.187918 99.9989308,220.589593 C139.596186,251.401319 171.601889,276.599572 195.196293,296.202174 C202.805667,302.599751 208.793371,307.78553 213.604918,310.993228 C218.398646,314.592979 224.796222,318.192729 232.797648,321.79248 C240.799073,325.39223 248.800499,327.388132 255.590127,327.388132 L256.392052,327.388132 C263.199501,327.388132 271.200927,325.39223 279.202352,321.79248 C287.203778,318.192729 293.601354,314.592979 298.395082,310.993228 C303.188809,307.78553 309.604206,302.599751 317.195759,296.202174 C340.398111,276.599572 372.385993,251.401319 412.001069,220.589593 C417.596721,216.187918 422.800321,211.394191 427.594048,206.190591 L427.594048,377.392587 C427.594048,379.388488 426.792123,380.992337 425.598147,382.596186 C423.994297,383.790163 422.390448,384.592088 420.394547,384.592088 L91.6054531,384.592088 C89.5917313,384.592088 88.0057026,383.790163 86.4018533,382.596186 C85.2078767,380.992337 84.4059521,379.388488 84.4059521,377.392587 L84.4059521,206.190591 L84.4059521,206.190591 Z M86.4018533,129.401853 C88.0057026,128.190056 89.5917313,127.388132 91.6054531,127.388132 L420.394547,127.388132 C421.588524,127.388132 422.800321,127.388132 423.602245,127.798004 C424.40417,128.190056 425.188274,128.991981 425.598147,129.793905 C425.990199,130.203778 426.400071,130.987882 426.792123,131.789807 C427.201996,132.199679 427.594048,133.001604 427.594048,134.587633 L427.594048,137.403279 L427.594048,140.201105 L427.594048,142.998931 C427.594048,151.802281 423.994297,161.389735 417.186848,172.188987 C410.39722,182.988238 402.787846,191.791589 394.786421,198.189165 C365.988417,220.589593 335.996436,244.201818 305.202531,268.990199 C304.400606,269.400071 301.60278,271.788025 297.201105,275.387775 C293.191482,278.987526 289.591731,281.785352 287.203778,283.799073 C284.388132,285.794975 281.198254,288.200748 277.18863,290.998574 C273.196828,293.386528 269.187205,295.792302 265.997327,296.986278 C262.397576,298.198075 259.189878,299 256.392052,299 L255.590127,299 C252.792302,299 249.602424,298.198075 246.002673,296.986278 C242.794975,295.792302 238.803172,293.386528 234.793549,290.998574 C230.801746,288.200748 227.594048,285.794975 224.796222,283.799073 C222.390448,281.785352 218.790698,278.987526 214.798895,275.387775 C210.39722,271.788025 207.599394,269.400071 206.797469,268.990199 C176.003564,244.201818 145.993763,220.589593 117.195759,198.189165 C95.2052036,180.600285 84.4059521,159.393834 84.4059521,134.587633 C84.4059521,132.591731 85.2078767,130.987882 86.4018533,129.401853 L86.4018533,129.401853 Z" id="Fill-112" sketch:type="MSShapeGroup"></path>
        </g>
    </g>
</svg>