<?xml version="1.0" encoding="UTF-8" standalone="no"?>
<svg width="512px" height="512px" viewBox="0 0 512 512" version="1.1" xmlns="http://www.w3.org/2000/svg" xmlns:xlink="http://www.w3.org/1999/xlink" xmlns:sketch="http://www.bohemiancoding.com/sketch/ns">
    <!-- Generator: Sketch 3.3.2 (12043) - http://www.bohemiancoding.com/sketch -->
    <title>uE014-phone</title>
    <desc>Created with Sketch.</desc>
    <defs></defs>
    <g id="Page-1" stroke="none" stroke-width="1" fill="none" fill-rule="evenodd" sketch:type="MSPage">
        <g id="uE014-phone" sketch:type="MSArtboardGroup" fill="#0A0B09">
            <path d="M57.0202925,167.438612 C57.5417753,172.018592 59.0608775,177.618864 60.5799796,183.717946 C62.1217549,189.839701 63.640857,194.41968 64.6611495,196.959075 C65.681442,200.019952 67.722027,205.098742 70.2614216,212.739599 C73.2996259,220.380456 74.8414012,224.960435 75.8616937,226.978347 C82.4822582,245.298266 90.1004421,262.099082 99.2604013,276.360503 C114.020633,300.779503 134.381136,325.719986 160.341911,351.680762 C186.280014,377.618864 211.220497,397.979367 235.66217,412.739599 C249.900918,421.899558 266.701734,429.540415 285.021653,436.160979 C287.062238,437.158599 291.642217,438.700374 299.260401,441.738578 C306.901258,444.300646 312.002721,446.318558 315.040925,447.33885 C317.58032,448.359143 322.160299,449.900918 328.282054,451.42002 C334.381136,452.939123 339.981408,454.480898 344.561388,454.979708 C349.640177,455.50119 354.24283,456 359.820429,456 C377.142728,456 394.442353,451.42002 412.240789,441.738578 C431.581,431.059517 443.280354,420.879265 446.862714,411.220497 C449.402109,406.640517 450.921211,400.019952 452.961796,391.880286 C455.002381,383.740619 456.022673,377.120054 456.022673,372.018592 C456.022673,369.479197 455.50119,367.438612 455.002381,365.91951 C453.982088,362.359823 446.862714,357.779844 433.621585,351.159279 C430.061898,348.619884 424.960435,346.08049 418.362544,342.520803 C411.220497,338.938442 405.620224,335.378755 400.042626,332.340551 C394.442353,329.279674 389.862374,326.740279 384.760911,323.679401 C384.262102,323.180592 381.722707,321.638816 377.641537,318.600612 C373.560367,316.038544 370.522163,314.020633 367.461286,312.478857 C364.921891,311.458565 362.382496,310.438272 359.820429,310.438272 C355.761932,310.438272 351.181952,313.49915 345.58168,318.600612 C339.482598,324.178211 334.381136,329.778483 329.801156,336.399048 C325.221177,342.520803 320.142387,348.619884 314.542115,353.698674 C309.440653,359.298946 304.860673,361.861013 301.822469,361.861013 C299.781884,361.861013 297.741299,361.339531 295.201905,360.319238 C292.66251,359.820429 290.621925,358.800136 289.601632,358.278653 C288.08253,357.258361 286.041945,356.260741 282.482258,354.220156 C279.421381,352.179571 277.380796,351.159279 277.380796,351.159279 C251.42002,336.399048 229.041605,320.119714 210.721687,301.278313 C191.880286,282.958395 175.600952,260.57998 160.840721,234.619204 C160.840721,234.619204 159.820429,232.578619 157.779844,229.540415 C155.761932,225.958055 154.741639,223.940143 153.721347,222.398368 C153.199864,221.400748 152.202245,219.360163 151.680762,216.798095 C150.660469,214.258701 150.16166,212.218116 150.16166,210.200204 C150.16166,207.139327 152.701054,202.559347 158.301326,197.480558 C163.380116,191.880286 169.501871,186.778823 175.600952,182.198844 C182.221517,177.618864 187.821789,172.540075 193.422061,166.41832 C198.50085,160.818048 201.561728,156.238068 201.561728,152.179571 C201.561728,149.640177 200.541435,147.078109 199.521143,144.538714 C198.002041,141.50051 195.961456,138.439633 193.422061,134.358463 C190.361184,130.299966 188.842081,127.737898 188.320599,127.239089 C185.259721,122.160299 182.720326,117.58032 179.682122,111.980048 C176.621245,106.379776 173.061558,100.779503 169.501871,93.6601292 C165.942183,87.0395647 163.380116,81.9381023 160.840721,78.3784151 C154.220156,65.1599592 149.640177,58.0179118 146.08049,57.0202925 C144.561388,56.4988097 142.520803,56 139.981408,56 C134.879946,56 128.282054,57.0202925 120.119714,59.0382043 C111.980048,61.0787893 105.382156,62.5978914 100.802177,65.1599592 C91.1207346,68.7196463 80.9404829,80.4190001 70.2614216,99.759211 C60.5799796,117.58032 56,134.879946 56,152.179571 C56,157.779844 56.5214828,162.359823 57.0202925,167.438612" id="Fill-147" sketch:type="MSShapeGroup"></path>
        </g>
    </g>
</svg>